<?xml version="1.0" encoding="UTF-8"?>
<svg xmlns="http://www.w3.org/2000/svg" version="1.1" viewBox="0 0 1298.15 1038.58">
  <defs>
    <style>
      .cls-1 {
        fill-rule: evenodd;
      }
    </style>
  </defs>
  <!-- Generator: Adobe Illustrator 28.7.1, SVG Export Plug-In . SVG Version: 1.2.0 Build 142)  -->
  <g>
    <g id="Layer_1">
      <path class="cls-1" d="M408.01,813.7c14.99,37.36,19.6,41.98,21.91,42.9,6.69,6.23,15.45,10.15,25.14,10.15h81.65c-33.44,12.92-56.97,45.21-56.97,83.03,0,49.13,39.67,88.8,88.8,88.8s88.8-39.67,88.8-88.8c0-37.83-23.53-70.11-56.97-83.03h350.11c-33.44,12.92-56.97,45.21-56.97,83.03,0,49.13,39.9,88.8,88.8,88.8s88.8-39.67,88.8-88.8c0-37.83-23.53-70.11-56.74-83.03h115.55c19.84,0,35.98-16.14,35.98-35.98h0c0-19.6-16.14-35.75-35.98-35.75H479.04l-22.6-78.42,632.65.23c19.84,0,33.67-.92,37.36-1.85,23.76-5.3,27.22-28.83,33.9-48.9l62.73-188.2c13.61-41.75,28.14-83.03,41.98-126.39l30.21-93.87c6.46-17.76,4.15-41.98-29.52-41.98l-978.84,1.15L221.88,25.14c-3-6.23-6.46-10.61-10.38-14.07-6.92-6.92-16.38-11.07-26.75-11.07H37.83C17.07,0,0,17.07,0,37.83h0c0,20.99,17.07,37.83,37.83,37.83h122.47l247.71,738.05Z"/>
    </g>
  </g>
</svg>